<?xml version="1.0" encoding="UTF-8" standalone="no"?>
<!DOCTYPE svg PUBLIC "-//W3C//DTD SVG 1.1//EN"
 "http://www.w3.org/Graphics/SVG/1.1/DTD/svg11.dtd">
<!-- Generated by graphviz version 2.38.0 (20140413.2041)
 -->
<!-- Title: G Pages: 1 -->
<svg width="737pt" height="690pt"
 viewBox="0.00 0.00 737.00 690.00" xmlns="http://www.w3.org/2000/svg" xmlns:xlink="http://www.w3.org/1999/xlink">
<g id="graph0" class="graph" transform="scale(1 1) rotate(0) translate(4 686)">
<title>G</title>
<polygon fill="white" stroke="none" points="-4,4 -4,-686 733,-686 733,4 -4,4"/>
<g id="clust1" class="cluster"><title>cluster_Global</title>
<path fill="none" stroke="gray" d="M20,-44C20,-44 709,-44 709,-44 715,-44 721,-50 721,-56 721,-56 721,-662 721,-662 721,-668 715,-674 709,-674 709,-674 20,-674 20,-674 14,-674 8,-668 8,-662 8,-662 8,-56 8,-56 8,-50 14,-44 20,-44"/>
<text text-anchor="middle" x="364.5" y="-661.2" font-family="Times,serif" font-size="11.00" fill="gray">Global</text>
</g>
<g id="clust2" class="cluster"><title>cluster_\LTI</title>
<path fill="none" stroke="gray" d="M28,-52C28,-52 701,-52 701,-52 707,-52 713,-58 713,-64 713,-64 713,-634 713,-634 713,-640 707,-646 701,-646 701,-646 28,-646 28,-646 22,-646 16,-640 16,-634 16,-634 16,-64 16,-64 16,-58 22,-52 28,-52"/>
<text text-anchor="middle" x="364.5" y="-633.2" font-family="Times,serif" font-size="11.00" fill="gray">LTI</text>
</g>
<g id="clust3" class="cluster"><title>cluster_\LTI\oauth</title>
<path fill="none" stroke="gray" d="M36,-60C36,-60 471,-60 471,-60 477,-60 483,-66 483,-72 483,-72 483,-606 483,-606 483,-612 477,-618 471,-618 471,-618 36,-618 36,-618 30,-618 24,-612 24,-606 24,-606 24,-72 24,-72 24,-66 30,-60 36,-60"/>
<text text-anchor="middle" x="253.5" y="-605.2" font-family="Times,serif" font-size="11.00" fill="gray">oauth</text>
</g>
<!-- \\LTI\\oauth\\OAuthSignatureMethod_PLAINTEXT -->
<g id="node1" class="node"><title>\\LTI\\oauth\\OAuthSignatureMethod_PLAINTEXT</title>
<polygon fill="none" stroke="black" points="475,-590 256,-590 256,-554 475,-554 475,-590"/>
<text text-anchor="middle" x="365.5" y="-569.2" font-family="Courier,monospace" font-size="11.00">OAuthSignatureMethod_PLAINTEXT</text>
</g>
<!-- \\LTI\\oauth\\OAuthSignatureMethod -->
<g id="node10" class="node"><title>\\LTI\\oauth\\OAuthSignatureMethod</title>
<polygon fill="none" stroke="black" points="184,-374 32,-374 32,-338 184,-338 184,-374"/>
<text text-anchor="start" x="74" y="-359.2" font-family="Courier,monospace" font-size="11.00">«abstract»</text>
<text text-anchor="start" x="40" y="-347.2" font-family="Courier,monospace" font-size="11.00">OAuthSignatureMethod</text>
</g>
<!-- \\LTI\\oauth\\OAuthSignatureMethod_PLAINTEXT&#45;&gt;\\LTI\\oauth\\OAuthSignatureMethod -->
<g id="edge1" class="edge"><title>\\LTI\\oauth\\OAuthSignatureMethod_PLAINTEXT&#45;&gt;\\LTI\\oauth\\OAuthSignatureMethod</title>
<path fill="none" stroke="black" d="M272.621,-553.941C266.807,-551.35 261.207,-548.388 256,-545 192.158,-503.462 144.399,-424.565 122.406,-383.065"/>
<polygon fill="none" stroke="black" points="125.456,-381.344 117.74,-374.084 119.244,-384.571 125.456,-381.344"/>
</g>
<!-- \\LTI\\oauth\\OAuthDataStore -->
<g id="node2" class="node"><title>\\LTI\\oauth\\OAuthDataStore</title>
<polygon fill="none" stroke="black" points="421,-536 310,-536 310,-500 421,-500 421,-536"/>
<text text-anchor="start" x="331.5" y="-521.2" font-family="Courier,monospace" font-size="11.00">«abstract»</text>
<text text-anchor="start" x="318" y="-509.2" font-family="Courier,monospace" font-size="11.00">OAuthDataStore</text>
</g>
<!-- \\LTI\\oauth\\OAuthServer -->
<g id="node3" class="node"><title>\\LTI\\oauth\\OAuthServer</title>
<polygon fill="none" stroke="black" points="411,-482 320,-482 320,-446 411,-446 411,-482"/>
<text text-anchor="middle" x="365.5" y="-461.2" font-family="Courier,monospace" font-size="11.00">OAuthServer</text>
</g>
<!-- \\LTI\\oauth\\OAuthRequest -->
<g id="node4" class="node"><title>\\LTI\\oauth\\OAuthRequest</title>
<polygon fill="none" stroke="black" points="414.5,-428 316.5,-428 316.5,-392 414.5,-392 414.5,-428"/>
<text text-anchor="middle" x="365.5" y="-407.2" font-family="Courier,monospace" font-size="11.00">OAuthRequest</text>
</g>
<!-- \\LTI\\oauth\\OAuthSignatureMethod_RSA_SHA1 -->
<g id="node5" class="node"><title>\\LTI\\oauth\\OAuthSignatureMethod_RSA_SHA1</title>
<polygon fill="none" stroke="black" points="471.5,-374 259.5,-374 259.5,-338 471.5,-338 471.5,-374"/>
<text text-anchor="middle" x="365.5" y="-353.2" font-family="Courier,monospace" font-size="11.00">OAuthSignatureMethod_RSA_SHA1</text>
</g>
<!-- \\LTI\\oauth\\OAuthSignatureMethod_RSA_SHA1&#45;&gt;\\LTI\\oauth\\OAuthSignatureMethod -->
<g id="edge2" class="edge"><title>\\LTI\\oauth\\OAuthSignatureMethod_RSA_SHA1&#45;&gt;\\LTI\\oauth\\OAuthSignatureMethod</title>
<path fill="none" stroke="black" d="M259.472,-356C237.827,-356 215.282,-356 194.432,-356"/>
<polygon fill="none" stroke="black" points="194.345,-352.5 184.345,-356 194.344,-359.5 194.345,-352.5"/>
</g>
<!-- \\LTI\\oauth\\OAuthConsumer -->
<g id="node6" class="node"><title>\\LTI\\oauth\\OAuthConsumer</title>
<polygon fill="none" stroke="black" points="417.5,-320 313.5,-320 313.5,-284 417.5,-284 417.5,-320"/>
<text text-anchor="middle" x="365.5" y="-299.2" font-family="Courier,monospace" font-size="11.00">OAuthConsumer</text>
</g>
<!-- \\LTI\\oauth\\OAuthSignatureMethod_HMAC_SHA1 -->
<g id="node7" class="node"><title>\\LTI\\oauth\\OAuthSignatureMethod_HMAC_SHA1</title>
<polygon fill="none" stroke="black" points="475,-266 256,-266 256,-230 475,-230 475,-266"/>
<text text-anchor="middle" x="365.5" y="-245.2" font-family="Courier,monospace" font-size="11.00">OAuthSignatureMethod_HMAC_SHA1</text>
</g>
<!-- \\LTI\\oauth\\OAuthSignatureMethod_HMAC_SHA1&#45;&gt;\\LTI\\oauth\\OAuthSignatureMethod -->
<g id="edge3" class="edge"><title>\\LTI\\oauth\\OAuthSignatureMethod_HMAC_SHA1&#45;&gt;\\LTI\\oauth\\OAuthSignatureMethod</title>
<path fill="none" stroke="black" d="M282.322,-266.03C273.333,-268.715 264.403,-271.704 256,-275 216.42,-290.523 174.206,-314.663 145.217,-332.556"/>
<polygon fill="none" stroke="black" points="143.295,-329.63 136.663,-337.892 147,-335.569 143.295,-329.63"/>
</g>
<!-- \\LTI\\oauth\\OAuthException -->
<g id="node8" class="node"><title>\\LTI\\oauth\\OAuthException</title>
<polygon fill="none" stroke="black" points="421,-212 310,-212 310,-176 421,-176 421,-212"/>
<text text-anchor="middle" x="365.5" y="-191.2" font-family="Courier,monospace" font-size="11.00">OAuthException</text>
</g>
<!-- \\Exception -->
<g id="node14" class="node"><title>\\Exception</title>
<ellipse fill="none" stroke="black" cx="108" cy="-18" rx="48.9926" ry="18"/>
<text text-anchor="middle" x="108" y="-14.3" font-family="Times,serif" font-size="14.00" fill="gray">\Exception</text>
</g>
<!-- \\LTI\\oauth\\OAuthException&#45;&gt;\\Exception -->
<g id="edge4" class="edge"><title>\\LTI\\oauth\\OAuthException&#45;&gt;\\Exception</title>
<path fill="none" stroke="black" d="M309.781,-188.583C291.415,-184.726 271.645,-178.16 256,-167 208.129,-132.851 227.733,-95.3088 184,-56 174.755,-47.6907 163.362,-40.7047 152.273,-35.0811"/>
<polygon fill="none" stroke="black" points="153.614,-31.8426 143.083,-30.6786 150.59,-38.1556 153.614,-31.8426"/>
</g>
<!-- \\LTI\\oauth\\OAuthUtil -->
<g id="node9" class="node"><title>\\LTI\\oauth\\OAuthUtil</title>
<polygon fill="none" stroke="black" points="404,-158 327,-158 327,-122 404,-122 404,-158"/>
<text text-anchor="middle" x="365.5" y="-137.2" font-family="Courier,monospace" font-size="11.00">OAuthUtil</text>
</g>
<!-- \\LTI\\oauth\\OAuthToken -->
<g id="node11" class="node"><title>\\LTI\\oauth\\OAuthToken</title>
<polygon fill="none" stroke="black" points="407.5,-104 323.5,-104 323.5,-68 407.5,-68 407.5,-104"/>
<text text-anchor="middle" x="365.5" y="-83.2" font-family="Courier,monospace" font-size="11.00">OAuthToken</text>
</g>
<!-- \\LTI\\BLTI -->
<g id="node12" class="node"><title>\\LTI\\BLTI</title>
<polygon fill="none" stroke="black" points="653,-604 599,-604 599,-568 653,-568 653,-604"/>
<text text-anchor="middle" x="626" y="-583.2" font-family="Courier,monospace" font-size="11.00">BLTI</text>
</g>
<!-- \\LTI\\TrivialOAuthDataStore -->
<g id="node13" class="node"><title>\\LTI\\TrivialOAuthDataStore</title>
<polygon fill="none" stroke="black" points="705,-536 547,-536 547,-500 705,-500 705,-536"/>
<text text-anchor="middle" x="626" y="-515.2" font-family="Courier,monospace" font-size="11.00">TrivialOAuthDataStore</text>
</g>
<!-- \\LTI\\TrivialOAuthDataStore&#45;&gt;\\LTI\\oauth\\OAuthDataStore -->
<g id="edge5" class="edge"><title>\\LTI\\TrivialOAuthDataStore&#45;&gt;\\LTI\\oauth\\OAuthDataStore</title>
<path fill="none" stroke="black" d="M546.74,-518C509.817,-518 466.282,-518 431.249,-518"/>
<polygon fill="none" stroke="black" points="431.137,-514.5 421.137,-518 431.137,-521.5 431.137,-514.5"/>
</g>
</g>
</svg>
